<svg viewBox="0 0 800 800" height="1rem" width="1rem" xmlns="http://www.w3.org/2000/svg" >
    <g fill="#666">
        <path d="M145.7 640c2 0 4-.2 6-.5L319.9 610c2-.4 3.9-1.3 5.3-2.8l423.9-423.9c3.894-3.886 3.9-10.192.014-14.086l-.014-.014L582.9 2.9C581 1 578.5 0 575.8 0s-5.2 1-7.1 2.9L144.8 426.8c-1.5 1.5-2.4 3.3-2.8 5.3l-29.5 168.2a33.5 33.5 0 0 0 9.4 29.8c6.6 6.4 14.9 9.9 23.8 9.9zm67.4-174.4L575.8 103l73.3 73.3-362.7 362.6-88.9 15.7 15.6-89zM768 724H32c-17.7 0-32 14.3-32 32v36c0 4.4 3.6 8 8 8h784c4.4 0 8-3.6 8-8v-36c0-17.7-14.3-32-32-32z"/>
    </g>
</svg>
