<svg width="954" height="195" viewBox="0 0 954 195" fill="none" xmlns="http://www.w3.org/2000/svg">
<path fill-rule="evenodd" clip-rule="evenodd" d="M521.18 125.553C521.18 87.2111 490.097 56.107 451.755 56.107C413.413 56.107 382.33 87.2111 382.33 125.553C382.33 163.896 413.413 195 451.755 195C490.097 195 521.18 163.896 521.18 125.553ZM409.032 125.553C409.032 149.156 428.16 168.29 451.755 168.29C475.35 168.29 494.478 149.156 494.478 125.553C494.478 101.951 475.35 82.8172 451.755 82.8172C428.16 82.8172 409.032 101.951 409.032 125.553Z" fill="black"/>
<path d="M372.357 176.176C373.603 178.466 373.03 181.339 370.882 182.816C359.71 190.501 346.179 195 331.597 195C293.254 195 262.172 163.896 262.172 125.553C262.172 87.2111 293.254 56.107 331.597 56.107C346.178 56.107 359.71 60.6058 370.882 68.2905C373.029 69.7677 373.603 72.6412 372.357 74.9307L364.825 88.7706C363.13 91.8857 358.917 92.5057 356.008 90.4764C349.088 85.6485 340.673 82.8172 331.596 82.8172C308.001 82.8172 288.873 101.951 288.873 125.553C288.873 149.156 308.001 168.29 331.596 168.29C340.673 168.29 349.088 165.458 356.008 160.63C358.917 158.601 363.13 159.221 364.826 162.336L372.357 176.176Z" fill="black"/>
<path fill-rule="evenodd" clip-rule="evenodd" d="M603.956 56.107C620.068 56.107 634.898 61.5995 646.678 70.8135V5.34773C646.678 2.39426 649.073 0 652.026 0H668.033C670.986 0 673.38 2.39426 673.38 5.34773V125.389L673.381 125.553C673.381 163.896 642.298 195 603.956 195C565.613 195 534.531 163.896 534.531 125.553C534.531 87.2111 565.613 56.107 603.956 56.107ZM561.233 125.553C561.233 149.156 580.36 168.29 603.956 168.29C627.551 168.29 646.679 149.156 646.679 125.553C646.679 101.951 627.551 82.8172 603.956 82.8172C580.36 82.8172 561.233 101.951 561.233 125.553Z" fill="black"/>
<path d="M817.652 130.9V64.1101C817.652 61.1567 815.257 58.7624 812.304 58.7624H796.298C793.344 58.7624 790.95 61.1566 790.95 64.1101V130.891C790.95 151.537 774.213 168.274 753.567 168.274C732.921 168.274 716.185 151.537 716.185 130.891L716.185 64.1101C716.185 61.1566 713.79 58.7624 710.837 58.7624H694.83C691.877 58.7624 689.483 61.1566 689.483 64.1101V130.9C689.483 166.293 718.174 194.984 753.567 194.984C788.96 194.984 817.652 166.293 817.652 130.9Z" fill="black"/>
<path d="M860.311 60.8954C859.301 59.5524 857.718 58.7624 856.037 58.7624H836.377C831.966 58.7624 829.452 63.8004 832.103 67.3249L873.476 122.324C874.908 124.228 874.908 126.85 873.476 128.754L832.103 183.751C829.452 187.275 831.967 192.313 836.377 192.313H856.037C857.718 192.313 859.301 191.523 860.311 190.18L888.143 153.181C890.282 150.337 894.551 150.337 896.69 153.181L924.522 190.18C925.533 191.523 927.115 192.313 928.796 192.313H948.456C952.867 192.313 955.381 187.275 952.73 183.751L911.357 128.754C909.925 126.85 909.925 124.228 911.357 122.324L952.73 67.3249C955.382 63.8004 952.867 58.7624 948.457 58.7624H928.796C927.115 58.7624 925.533 59.5524 924.522 60.8954L896.69 97.8942C894.551 100.738 890.282 100.738 888.143 97.8942L860.311 60.8954Z" fill="black"/>
<path fill-rule="evenodd" clip-rule="evenodd" d="M155.025 57.3535C155.025 65.9891 153.117 74.1791 149.699 81.5244C175.673 86.9943 195.172 110.043 195.172 137.647C195.172 169.322 169.496 195 137.823 195H57.5351C25.8621 195 0.186035 169.322 0.186035 137.647C0.186035 110.045 19.6827 86.9969 45.6547 81.5253C42.2364 74.1797 40.3278 65.9895 40.3278 57.3535C40.3278 25.678 66.0037 0 97.6765 0C129.349 0 155.025 25.678 155.025 57.3535Z" fill="#4B47FF"/>
<path d="M124.171 74.9629L104.232 64.1981C100.087 61.9601 95.0918 61.9652 90.9511 64.2118L71.1249 74.9685C67.1247 77.1389 67.1247 82.8807 71.1249 85.0511L90.9511 95.8079C95.0918 98.0544 100.087 98.0596 104.232 95.8216L124.171 85.0567C128.185 82.8896 128.185 77.1301 124.171 74.9629Z" fill="white"/>
</svg>
